<?xml version="1.0"?>
<svg xmlns="http://www.w3.org/2000/svg" xmlns:xlink="http://www.w3.org/1999/xlink" version="1.1" id="Layer_1" x="0px" y="0px" viewBox="0 0 512.008 512.008" style="enable-background:new 0 0 512.008 512.008;" xml:space="preserve" width="512px" height="512px"><g><g>
	<g>
		<path d="M365.333,109.334c-42.266,0-80.36,17.899-107.134,46.524c-14.344-16.524-35.493-26.961-59.087-26.961    c-43.196,0-78.22,35.016-78.22,78.22c0,0.648,0.008,1.305,0.023,1.953c-26.79,5.43-49.595,21.812-63.556,44.266H10.664    C4.773,253.336,0,258.11,0,264.001c-0.008,5.891,4.773,10.672,10.664,10.672h149.338c5.891,0,10.665-4.781,10.665-10.672    s-4.774-10.665-10.665-10.665H84.025c10.898-11.914,25.368-20.164,41.134-23.359l17.523-3.555l-0.438-17.883    c-0.016-0.516-0.023-0.984-0.023-1.422c0-31.368,25.523-56.892,56.892-56.892c16.492,0,32.156,7.148,42.977,19.617l15.524,17.875    l16.172-17.289c11.625-12.43,25.344-22.203,40.813-29.062c16-7.094,33.062-10.696,50.734-10.696    c33.485,0,64.954,13.04,88.627,36.711c23.672,23.672,36.703,55.142,36.703,88.626c0,33.477-13.031,64.946-36.703,88.62    c-23.673,23.672-55.142,36.703-88.627,36.703H79.485H10.664C4.773,381.33,0,386.111,0,392.002    c-0.008,5.891,4.773,10.672,10.664,10.672h181.339h173.33c81.002,0,146.675-65.672,146.675-146.667    C512.008,174.999,446.335,109.334,365.333,109.334z" data-original="#000000" class="active-path" data-old_color="#000000" fill="#FFFFFF"/>
	</g>
</g><g>
	<g>
		<path d="M202.667,317.328H53.329c-5.891,0-10.664,4.781-10.664,10.674c0,5.891,4.773,10.672,10.664,10.672h149.338    c5.891,0,10.664-4.781,10.664-10.672C213.331,322.109,208.558,317.328,202.667,317.328z" data-original="#000000" class="active-path" data-old_color="#000000" fill="#FFFFFF"/>
	</g>
</g></g> </svg>
